# xmcd
#
# Track frame offsets:
#	187
#	10612
#	22400
#	32800
#	42487
#	54675
#	65950
#	81862
#	93137
#	103725
#	114137
#	125337
#	137862
#	148050
#	159962
#	171962
#	184937
#	197275
#	207337
#	218762
#
# Disc length: 3060 seconds
#
# Revision: 1
# Processed by: cddbd v1.5.1PL0 Copyright (c) Steve Scherf et al.
# Submitted via: CDex 1.50Beta5
#
DISCID=200bf214
DTITLE=Various Artist - AMERICAN HIT PARADE 50`s
DYEAR=1900
DGENRE=
TTITLE0=コニー・フランシス/カラーに口紅
TTITLE1=Johnny preston/悲しきインディアン
TTITLE2=Dick Hyman/モリタート
TTITLE3=The Diamonds/リトル・ダーリン
TTITLE4=マーク・ダイニング/ティーン・エンジェル
TTITLE5=Lonnie donegan/ロック・アイランド・ライン
TTITLE6=Frank Chacksfield/ひき潮
TTITLE7=Dinah Washinton/縁は異なもの
TTITLE8=リッキー・ネルソン/十代のロマンス
TTITLE9=コニー・フランシス/フーズ・ソリー・ナウ
TTITLE10=ブルック・ベントン/恋はきながに
TTITLE11=プラターズ/トワイライト・タイム
TTITLE12=シェブ・ウーリー/ロックを踊る宇宙人
TTITLE13=Tommy Edwards/恋のゲーム
TTITLE14=プラターズ/煙が目にしみる
TTITLE15=Patti page/アレゲニーの月
TTITLE16=Rusty Draper/ザ・シフティング・ウィスパーリング・サンズ
TTITLE17=コンウェイ・トゥイッティ/思わせぶり
TTITLE18=コニー・フランシス/思い出の中に
TTITLE19=Phil Philpis/シー・オブ・ラブ
EXTD=
EXTT0=
EXTT1=
EXTT2=
EXTT3=
EXTT4=
EXTT5=
EXTT6=
EXTT7=
EXTT8=
EXTT9=
EXTT10=
EXTT11=
EXTT12=
EXTT13=
EXTT14=
EXTT15=
EXTT16=
EXTT17=
EXTT18=
EXTT19=
PLAYORDER=
